<mxfile host="app.diagrams.net" agent="Mozilla/5.0 (X11; Linux x86_64; rv:133.0) Gecko/20100101 Firefox/133.0" version="26.0.16">
  <diagram name="CD-Create-account-username-with-name-and-password" id="RdNCWnpBe2orVZeH23sZ">
    <mxGraphModel dx="3809" dy="1594" grid="1" gridSize="10" guides="1" tooltips="1" connect="1" arrows="1" fold="1" page="0" pageScale="1" pageWidth="850" pageHeight="1100" math="0" shadow="0">
      <root>
        <mxCell id="0" />
        <mxCell id="1" parent="0" />
        <mxCell id="aEpt4ymE54McEq49jxls-1" style="edgeStyle=orthogonalEdgeStyle;rounded=0;orthogonalLoop=1;jettySize=auto;html=1;entryX=0;entryY=0.5;entryDx=0;entryDy=0;endArrow=none;startFill=0;" parent="1" edge="1">
          <mxGeometry relative="1" as="geometry">
            <mxPoint x="-2025" y="-440" as="sourcePoint" />
            <mxPoint x="-1820" y="-440" as="targetPoint" />
          </mxGeometry>
        </mxCell>
        <mxCell id="aEpt4ymE54McEq49jxls-2" value="User" style="shape=umlActor;verticalLabelPosition=bottom;verticalAlign=top;html=1;outlineConnect=0;" parent="1" vertex="1">
          <mxGeometry x="-2060" y="-480" width="35" height="70" as="geometry" />
        </mxCell>
        <mxCell id="aEpt4ymE54McEq49jxls-3" value=":Frontend" style="rounded=0;whiteSpace=wrap;html=1;" parent="1" vertex="1">
          <mxGeometry x="-1820" y="-465" width="130.91" height="40" as="geometry" />
        </mxCell>
        <mxCell id="aEpt4ymE54McEq49jxls-4" value="" style="endArrow=classic;html=1;rounded=0;" parent="1" edge="1">
          <mxGeometry width="50" height="50" relative="1" as="geometry">
            <mxPoint x="-2000" y="-455" as="sourcePoint" />
            <mxPoint x="-1840" y="-455" as="targetPoint" />
          </mxGeometry>
        </mxCell>
        <mxCell id="aEpt4ymE54McEq49jxls-5" value="" style="endArrow=classic;html=1;rounded=0;dashed=1;" parent="1" edge="1">
          <mxGeometry width="50" height="50" relative="1" as="geometry">
            <mxPoint x="-1850" y="-425" as="sourcePoint" />
            <mxPoint x="-2010" y="-425" as="targetPoint" />
          </mxGeometry>
        </mxCell>
        <mxCell id="aEpt4ymE54McEq49jxls-6" value="&amp;nbsp;:Router" style="rounded=0;whiteSpace=wrap;html=1;" parent="1" vertex="1">
          <mxGeometry x="-1480" y="-465" width="130.91" height="40" as="geometry" />
        </mxCell>
        <mxCell id="aEpt4ymE54McEq49jxls-7" style="edgeStyle=orthogonalEdgeStyle;rounded=0;orthogonalLoop=1;jettySize=auto;html=1;entryX=0;entryY=0.5;entryDx=0;entryDy=0;endArrow=none;startFill=0;" parent="1" target="aEpt4ymE54McEq49jxls-6" edge="1">
          <mxGeometry relative="1" as="geometry">
            <mxPoint x="-1689.09" y="-445" as="sourcePoint" />
            <mxPoint x="-1484.09" y="-445" as="targetPoint" />
          </mxGeometry>
        </mxCell>
        <mxCell id="aEpt4ymE54McEq49jxls-8" value="" style="endArrow=classic;html=1;rounded=0;" parent="1" edge="1">
          <mxGeometry width="50" height="50" relative="1" as="geometry">
            <mxPoint x="-1664.09" y="-460" as="sourcePoint" />
            <mxPoint x="-1504.09" y="-460" as="targetPoint" />
          </mxGeometry>
        </mxCell>
        <mxCell id="aEpt4ymE54McEq49jxls-9" value="" style="endArrow=classic;html=1;rounded=0;dashed=1;" parent="1" edge="1">
          <mxGeometry width="50" height="50" relative="1" as="geometry">
            <mxPoint x="-1514.09" y="-430" as="sourcePoint" />
            <mxPoint x="-1674.09" y="-430" as="targetPoint" />
          </mxGeometry>
        </mxCell>
        <mxCell id="aEpt4ymE54McEq49jxls-10" value="&amp;nbsp;" style="text;whiteSpace=wrap;html=1;" parent="1" vertex="1">
          <mxGeometry x="-1580" y="-480" width="40" height="40" as="geometry" />
        </mxCell>
        <mxCell id="aEpt4ymE54McEq49jxls-11" value="&amp;nbsp;:UserController" style="rounded=0;whiteSpace=wrap;html=1;" parent="1" vertex="1">
          <mxGeometry x="-1140" y="-465" width="130.91" height="40" as="geometry" />
        </mxCell>
        <mxCell id="aEpt4ymE54McEq49jxls-12" style="edgeStyle=orthogonalEdgeStyle;rounded=0;orthogonalLoop=1;jettySize=auto;html=1;entryX=0;entryY=0.5;entryDx=0;entryDy=0;endArrow=none;startFill=0;" parent="1" target="aEpt4ymE54McEq49jxls-11" edge="1">
          <mxGeometry relative="1" as="geometry">
            <mxPoint x="-1349.09" y="-445" as="sourcePoint" />
            <mxPoint x="-1144.09" y="-445" as="targetPoint" />
          </mxGeometry>
        </mxCell>
        <mxCell id="aEpt4ymE54McEq49jxls-13" value="" style="endArrow=classic;html=1;rounded=0;" parent="1" edge="1">
          <mxGeometry width="50" height="50" relative="1" as="geometry">
            <mxPoint x="-1324.09" y="-460" as="sourcePoint" />
            <mxPoint x="-1164.09" y="-460" as="targetPoint" />
          </mxGeometry>
        </mxCell>
        <mxCell id="aEpt4ymE54McEq49jxls-14" value="" style="endArrow=classic;html=1;rounded=0;dashed=1;" parent="1" edge="1">
          <mxGeometry width="50" height="50" relative="1" as="geometry">
            <mxPoint x="-1174.09" y="-430" as="sourcePoint" />
            <mxPoint x="-1334.09" y="-430" as="targetPoint" />
          </mxGeometry>
        </mxCell>
        <mxCell id="aEpt4ymE54McEq49jxls-15" value="&amp;nbsp;:UserService" style="rounded=0;whiteSpace=wrap;html=1;" parent="1" vertex="1">
          <mxGeometry x="-800" y="-465" width="130.91" height="40" as="geometry" />
        </mxCell>
        <mxCell id="aEpt4ymE54McEq49jxls-16" style="edgeStyle=orthogonalEdgeStyle;rounded=0;orthogonalLoop=1;jettySize=auto;html=1;entryX=0;entryY=0.5;entryDx=0;entryDy=0;endArrow=none;startFill=0;" parent="1" target="aEpt4ymE54McEq49jxls-15" edge="1">
          <mxGeometry relative="1" as="geometry">
            <mxPoint x="-1009.0899999999999" y="-445" as="sourcePoint" />
            <mxPoint x="-804.0899999999999" y="-445" as="targetPoint" />
          </mxGeometry>
        </mxCell>
        <mxCell id="aEpt4ymE54McEq49jxls-17" value="" style="endArrow=classic;html=1;rounded=0;" parent="1" edge="1">
          <mxGeometry width="50" height="50" relative="1" as="geometry">
            <mxPoint x="-984.0899999999999" y="-460" as="sourcePoint" />
            <mxPoint x="-824.0899999999999" y="-460" as="targetPoint" />
          </mxGeometry>
        </mxCell>
        <mxCell id="aEpt4ymE54McEq49jxls-18" value="" style="endArrow=classic;html=1;rounded=0;dashed=1;" parent="1" edge="1">
          <mxGeometry width="50" height="50" relative="1" as="geometry">
            <mxPoint x="-829.9999999999999" y="-430" as="sourcePoint" />
            <mxPoint x="-989.9999999999999" y="-430" as="targetPoint" />
          </mxGeometry>
        </mxCell>
        <mxCell id="aEpt4ymE54McEq49jxls-19" style="edgeStyle=orthogonalEdgeStyle;rounded=0;orthogonalLoop=1;jettySize=auto;html=1;endArrow=none;startFill=0;" parent="1" source="aEpt4ymE54McEq49jxls-20" target="aEpt4ymE54McEq49jxls-40" edge="1">
          <mxGeometry relative="1" as="geometry" />
        </mxCell>
        <mxCell id="aEpt4ymE54McEq49jxls-20" value="&amp;nbsp;:UserRepository" style="rounded=0;whiteSpace=wrap;html=1;" parent="1" vertex="1">
          <mxGeometry x="-459.99999999999994" y="-465" width="130.91" height="40" as="geometry" />
        </mxCell>
        <mxCell id="aEpt4ymE54McEq49jxls-21" style="edgeStyle=orthogonalEdgeStyle;rounded=0;orthogonalLoop=1;jettySize=auto;html=1;entryX=0;entryY=0.5;entryDx=0;entryDy=0;endArrow=none;startFill=0;" parent="1" target="aEpt4ymE54McEq49jxls-20" edge="1">
          <mxGeometry relative="1" as="geometry">
            <mxPoint x="-669.0899999999999" y="-445" as="sourcePoint" />
            <mxPoint x="-464.08999999999986" y="-445" as="targetPoint" />
          </mxGeometry>
        </mxCell>
        <mxCell id="aEpt4ymE54McEq49jxls-22" value="" style="endArrow=classic;html=1;rounded=0;" parent="1" edge="1">
          <mxGeometry width="50" height="50" relative="1" as="geometry">
            <mxPoint x="-644.0899999999999" y="-460" as="sourcePoint" />
            <mxPoint x="-484.08999999999986" y="-460" as="targetPoint" />
          </mxGeometry>
        </mxCell>
        <mxCell id="aEpt4ymE54McEq49jxls-23" value="" style="endArrow=classic;html=1;rounded=0;dashed=1;" parent="1" edge="1">
          <mxGeometry width="50" height="50" relative="1" as="geometry">
            <mxPoint x="-479.9999999999999" y="-430" as="sourcePoint" />
            <mxPoint x="-639.9999999999999" y="-430" as="targetPoint" />
          </mxGeometry>
        </mxCell>
        <mxCell id="aEpt4ymE54McEq49jxls-28" value="&lt;div align=&quot;left&quot;&gt;1. .handleCreateAccountClick()&lt;/div&gt;&lt;div align=&quot;left&quot;&gt;3. .handleCreateAccountSubmit(username, password, email)&lt;br&gt;&lt;/div&gt;" style="text;html=1;align=left;verticalAlign=middle;resizable=0;points=[];autosize=1;strokeColor=none;fillColor=none;" parent="1" vertex="1">
          <mxGeometry x="-2020" y="-520" width="370" height="40" as="geometry" />
        </mxCell>
        <mxCell id="aEpt4ymE54McEq49jxls-40" value="&amp;nbsp;:Database" style="rounded=0;whiteSpace=wrap;html=1;" parent="1" vertex="1">
          <mxGeometry x="-459.99999999999994" y="-220" width="130.91" height="40" as="geometry" />
        </mxCell>
        <mxCell id="aEpt4ymE54McEq49jxls-41" value="" style="endArrow=classic;html=1;rounded=0;" parent="1" edge="1">
          <mxGeometry width="50" height="50" relative="1" as="geometry">
            <mxPoint x="-410" y="-400" as="sourcePoint" />
            <mxPoint x="-410" y="-240" as="targetPoint" />
          </mxGeometry>
        </mxCell>
        <mxCell id="aEpt4ymE54McEq49jxls-42" value="" style="endArrow=classic;html=1;rounded=0;dashed=1;" parent="1" edge="1">
          <mxGeometry width="50" height="50" relative="1" as="geometry">
            <mxPoint x="-380" y="-240" as="sourcePoint" />
            <mxPoint x="-380" y="-400" as="targetPoint" />
          </mxGeometry>
        </mxCell>
        <mxCell id="aEpt4ymE54McEq49jxls-43" value="&lt;div&gt;11. INSERT INTO users (username, password, email)&amp;nbsp;&lt;/div&gt;&lt;div&gt;VALUES (@username, @password, @email)&lt;/div&gt;" style="text;html=1;align=center;verticalAlign=middle;resizable=0;points=[];autosize=1;strokeColor=none;fillColor=none;" parent="1" vertex="1">
          <mxGeometry x="-744.09" y="-325" width="320" height="40" as="geometry" />
        </mxCell>
        <mxCell id="aEpt4ymE54McEq49jxls-44" value="12. User, Error" style="text;html=1;align=center;verticalAlign=middle;resizable=0;points=[];autosize=1;strokeColor=none;fillColor=none;" parent="1" vertex="1">
          <mxGeometry x="-380.00000000000006" y="-320" width="110" height="30" as="geometry" />
        </mxCell>
        <mxCell id="aEpt4ymE54McEq49jxls-45" value="14. User, Error" style="text;html=1;align=center;verticalAlign=middle;resizable=0;points=[];autosize=1;strokeColor=none;fillColor=none;" parent="1" vertex="1">
          <mxGeometry x="-970" y="-430" width="110" height="30" as="geometry" />
        </mxCell>
        <mxCell id="aEpt4ymE54McEq49jxls-46" value="13. User, Error" style="text;html=1;align=center;verticalAlign=middle;resizable=0;points=[];autosize=1;strokeColor=none;fillColor=none;" parent="1" vertex="1">
          <mxGeometry x="-635" y="-430" width="110" height="30" as="geometry" />
        </mxCell>
        <mxCell id="ZtM7ywMIMfxa8ilJeATS-1" value="&lt;div align=&quot;left&quot;&gt;5. [Invalid] Show error &quot;Invalid input&quot;&lt;br&gt;&lt;/div&gt;&lt;div align=&quot;left&quot;&gt;17. Show success &quot;Account created&quot;&lt;/div&gt;" style="text;html=1;align=center;verticalAlign=middle;resizable=0;points=[];autosize=1;strokeColor=none;fillColor=none;" vertex="1" parent="1">
          <mxGeometry x="-2020" y="-410" width="240" height="40" as="geometry" />
        </mxCell>
        <mxCell id="ZtM7ywMIMfxa8ilJeATS-3" value="6.[Valid] POST/api/users" style="text;html=1;align=center;verticalAlign=middle;resizable=0;points=[];autosize=1;strokeColor=none;fillColor=none;" vertex="1" parent="1">
          <mxGeometry x="-1670" y="-495" width="160" height="30" as="geometry" />
        </mxCell>
        <mxCell id="ZtM7ywMIMfxa8ilJeATS-4" value="7. .CreateUser(username, password, email)" style="text;html=1;align=center;verticalAlign=middle;resizable=0;points=[];autosize=1;strokeColor=none;fillColor=none;" vertex="1" parent="1">
          <mxGeometry x="-1385" y="-500" width="270" height="30" as="geometry" />
        </mxCell>
        <mxCell id="ZtM7ywMIMfxa8ilJeATS-5" value="8. .CreateUser(username, password, email)" style="text;html=1;align=center;verticalAlign=middle;resizable=0;points=[];autosize=1;strokeColor=none;fillColor=none;" vertex="1" parent="1">
          <mxGeometry x="-1029.09" y="-500" width="270" height="30" as="geometry" />
        </mxCell>
        <mxCell id="ZtM7ywMIMfxa8ilJeATS-6" value="10. .CreateUser(username, password, email)" style="text;html=1;align=center;verticalAlign=middle;resizable=0;points=[];autosize=1;strokeColor=none;fillColor=none;" vertex="1" parent="1">
          <mxGeometry x="-679.0899999999999" y="-500" width="270" height="30" as="geometry" />
        </mxCell>
        <mxCell id="ZtM7ywMIMfxa8ilJeATS-7" value="15. 201 Created" style="text;html=1;align=center;verticalAlign=middle;resizable=0;points=[];autosize=1;strokeColor=none;fillColor=none;" vertex="1" parent="1">
          <mxGeometry x="-1320" y="-430" width="110" height="30" as="geometry" />
        </mxCell>
        <mxCell id="ZtM7ywMIMfxa8ilJeATS-8" value="16. 201 Created" style="text;html=1;align=center;verticalAlign=middle;resizable=0;points=[];autosize=1;strokeColor=none;fillColor=none;" vertex="1" parent="1">
          <mxGeometry x="-1650" y="-425" width="110" height="30" as="geometry" />
        </mxCell>
        <mxCell id="ZtM7ywMIMfxa8ilJeATS-10" value="&lt;font style=&quot;font-size: 16px;&quot;&gt;Create account username with name and password&lt;/font&gt;" style="text;html=1;align=center;verticalAlign=middle;whiteSpace=wrap;rounded=0;" vertex="1" parent="1">
          <mxGeometry x="-1360" y="-610" width="450" height="30" as="geometry" />
        </mxCell>
        <mxCell id="GLoITVXrbEWRwwSMni7S-2" value="" style="endArrow=none;html=1;rounded=0;entryX=0.459;entryY=0.992;entryDx=0;entryDy=0;entryPerimeter=0;" edge="1" parent="1" target="aEpt4ymE54McEq49jxls-3">
          <mxGeometry width="50" height="50" relative="1" as="geometry">
            <mxPoint x="-1760" y="-390" as="sourcePoint" />
            <mxPoint x="-1830" y="-410" as="targetPoint" />
          </mxGeometry>
        </mxCell>
        <mxCell id="GLoITVXrbEWRwwSMni7S-3" value="" style="endArrow=none;html=1;rounded=0;" edge="1" parent="1">
          <mxGeometry width="50" height="50" relative="1" as="geometry">
            <mxPoint x="-1760" y="-390" as="sourcePoint" />
            <mxPoint x="-1730" y="-390" as="targetPoint" />
          </mxGeometry>
        </mxCell>
        <mxCell id="GLoITVXrbEWRwwSMni7S-4" value="" style="endArrow=classic;html=1;rounded=0;entryX=0.69;entryY=1.022;entryDx=0;entryDy=0;entryPerimeter=0;" edge="1" parent="1" target="aEpt4ymE54McEq49jxls-3">
          <mxGeometry width="50" height="50" relative="1" as="geometry">
            <mxPoint x="-1730" y="-390" as="sourcePoint" />
            <mxPoint x="-1670" y="-420" as="targetPoint" />
          </mxGeometry>
        </mxCell>
        <mxCell id="GLoITVXrbEWRwwSMni7S-5" value="4. Validate(username, password, email)" style="text;html=1;align=center;verticalAlign=middle;resizable=0;points=[];autosize=1;strokeColor=none;fillColor=none;" vertex="1" parent="1">
          <mxGeometry x="-1800" y="-385" width="250" height="30" as="geometry" />
        </mxCell>
        <mxCell id="GLoITVXrbEWRwwSMni7S-9" value="" style="group" vertex="1" connectable="0" parent="1">
          <mxGeometry x="-749.3199999999999" y="-425" width="29.54" height="35" as="geometry" />
        </mxCell>
        <mxCell id="GLoITVXrbEWRwwSMni7S-6" value="" style="endArrow=none;html=1;rounded=0;entryX=0.459;entryY=0.992;entryDx=0;entryDy=0;entryPerimeter=0;" edge="1" parent="GLoITVXrbEWRwwSMni7S-9">
          <mxGeometry width="50" height="50" relative="1" as="geometry">
            <mxPoint y="35" as="sourcePoint" />
            <mxPoint as="targetPoint" />
          </mxGeometry>
        </mxCell>
        <mxCell id="GLoITVXrbEWRwwSMni7S-7" value="" style="endArrow=none;html=1;rounded=0;" edge="1" parent="GLoITVXrbEWRwwSMni7S-9">
          <mxGeometry width="50" height="50" relative="1" as="geometry">
            <mxPoint y="35" as="sourcePoint" />
            <mxPoint x="29.54" y="35" as="targetPoint" />
          </mxGeometry>
        </mxCell>
        <mxCell id="GLoITVXrbEWRwwSMni7S-8" value="" style="endArrow=classic;html=1;rounded=0;entryX=0.69;entryY=1.022;entryDx=0;entryDy=0;entryPerimeter=0;" edge="1" parent="GLoITVXrbEWRwwSMni7S-9">
          <mxGeometry width="50" height="50" relative="1" as="geometry">
            <mxPoint x="29.54" y="35" as="sourcePoint" />
            <mxPoint x="29.54" y="1" as="targetPoint" />
          </mxGeometry>
        </mxCell>
        <mxCell id="GLoITVXrbEWRwwSMni7S-10" value="9..HashPassword(password)" style="text;html=1;align=center;verticalAlign=middle;resizable=0;points=[];autosize=1;strokeColor=none;fillColor=none;" vertex="1" parent="1">
          <mxGeometry x="-824.5499999999998" y="-390" width="180" height="30" as="geometry" />
        </mxCell>
      </root>
    </mxGraphModel>
  </diagram>
</mxfile>
